<?xml version="1.0" encoding="UTF-8" standalone="no"?>
<svg
   xmlns:dc="http://purl.org/dc/elements/1.1/"
   xmlns:cc="http://creativecommons.org/ns#"
   xmlns:rdf="http://www.w3.org/1999/02/22-rdf-syntax-ns#"
   xmlns:svg="http://www.w3.org/2000/svg"
   xmlns="http://www.w3.org/2000/svg"
   version="1.1"
   width="300"
   height="679.09485"
   id="svg5857">
  <g
     transform="translate(217.74449,11.204272)"
     id="layer1">
    <g
       transform="matrix(2.3827953,0,0,2.3827953,-2580.6998,-1575.2499)"
       id="g5809">
      <path
         d="m 1054.6249,736.32285 c -24.5575,0 -46.7962,-5.54875 -62.95125,-14.525 l 0,219.5925 125.90255,0 0,-219.5925 c -16.1588,8.97625 -38.3975,14.525 -62.9513,14.525"
         id="path5027"
         style="fill:#000000;fill-opacity:1;fill-rule:nonzero;stroke:none" />
      <path
         d="m 1054.6249,731.3661 c 34.665,0 62.76,-16.7825 62.76,-37.48875 0,-20.70375 -28.095,-37.48625 -62.76,-37.48625 -34.665,0 -62.76625,16.7825 -62.76625,37.48625 0,20.70625 28.10125,37.48875 62.76625,37.48875"
         id="path5031"
         style="fill:#000000;fill-opacity:1;fill-rule:nonzero;stroke:none" />
      <path
         d="m 1011.1545,901.74797 c 0.9487,-0.045 2.1987,0.04 2.3237,0.96875 0.04,0.2975 -0.245,1.94625 -0.5812,2.16875 -0.6813,0.45125 -2.4738,0.1925 -3.485,0.1925 -2.2975,0 -5.1925,0.565 -4.415,-2.01375 0.071,-0.23375 0.1,-0.75625 0.31,-1.00625 0.385,-0.45625 1.9875,-0.27875 2.75,-0.27125 1.195,0.0125 2.0625,0.01 3.0975,-0.0387"
         id="path5035"
         style="fill:#f4f4f0;fill-opacity:1;fill-rule:nonzero;stroke:none" />
      <path
         d="m 1109.6356,919.05935 c 0.016,0.90125 -0.1962,1.6775 -0.3362,2.42125 -0.1638,0.88375 -0.3275,1.62 -0.7463,2.3025 -0.8412,1.36625 -2.3675,1.64 -4.6862,1.66625 -1.9188,0.0213 -4.0063,0.005 -5.8863,0 -2.0912,-0.006 -3.84,0.0275 -5.19,-0.8525 -0.7225,-0.47 -1.5375,-1.565 -1.5487,-2.86625 -0.014,-1.31375 1.0337,-5.29375 1.2,-5.925 0.7075,-2.6875 0.9037,-4.43875 1.9362,-6.15625 0.38,-0.63375 0.985,-1.24375 1.5875,-1.74375 0.4138,-0.3425 0.6975,-0.53125 1.2,-0.85125 0.6225,-0.3975 1.3138,-0.705 2.2463,-0.81375 1.6925,-0.1975 3.7625,-0.07 5.5387,-0.155 0.825,-0.0388 1.7788,0.045 2.6725,0.11625 0.3475,0.0275 1.9188,0.20625 2.44,0.3875 0.8375,0.29125 1.8788,0.82375 2.09,1.54875 0.1013,0.34625 0.11,0.825 0.1163,1.1625 0.034,1.7525 -0.4113,3.54875 -0.8513,4.685 -0.3287,0.845 -1.0925,1.76 -2.13,1.8975 -0.9025,0.12125 -7.8625,-0.005 -8.095,0.0775 -0.6187,0.2225 -0.7925,2.22 -0.4637,2.94375 0.5787,1.2775 2.9087,0.9125 4.5687,0.89125 0.5538,-0.008 1.3375,0.004 1.8125,-0.001 1.2988,-0.0137 1.5825,-0.55625 2.525,-0.735 m -5.575,-6.39 c 0.2588,-0.455 0.1838,-1.61 0,-2.0525 -0.1412,-0.33875 -0.5912,-0.70125 -1.0462,-0.62 -0.9613,0.1725 -1.07,1.63125 -1.1238,2.75 0.5063,0.19625 1.9038,0.38375 2.17,-0.0775"
         id="path5039"
         style="fill:#f4f4f0;fill-opacity:1;fill-rule:nonzero;stroke:none" />
      <path
         d="m 1079.2753,920.49197 c -1.0187,0.2925 -1.3587,1.08375 -2.0525,1.55 -0.1537,0.1025 -0.9337,0.59125 -1.1237,0.6575 -0.245,0.0862 -0.745,0.13 -1.085,0.155 -2.885,0.2075 -5.9238,-0.006 -5.9238,-2.75 0,-1.0625 1.7313,-8.38 2.4775,-10.06875 0.2463,-0.55625 0.84,-1.35625 1.24,-1.78125 0.54,-0.575 1.0375,-0.87875 1.8225,-1.2375 0.2725,-0.125 1.755,-0.4925 1.9713,-0.54375 0.35,-0.0825 0.8187,-0.0937 1.24,-0.11625 2.205,-0.1225 5.0762,0.035 7.4362,-0.0775 1.7475,-0.0825 4.8013,-0.345 5.305,1.08375 0.2925,0.83 0.068,1.655 -0.1162,2.595 -0.1025,0.525 -1.9925,8.21375 -2.13,8.7525 -0.7888,3.085 -1.1063,7.1525 -2.865,9.3325 -1.4163,1.755 -3.5113,2.50375 -6.545,2.5175 -2.93,0.015 -5.2088,0.16625 -8.1338,0.0775 -1.6275,-0.0488 -3.4637,-0.4725 -3.4075,-2.4775 0.01,-0.3275 0.31,-1.86375 0.3875,-2.24625 0.1125,-0.55125 0.345,-1.8275 0.6963,-1.89875 0.455,-0.09 1.29,0.835 1.7812,1.0075 0.8738,0.30625 2.2388,0.19875 3.68,0.19375 0.7063,-0.002 2.9,-0.3075 3.2525,-0.465 1.4275,-0.635 2.1638,-2.46875 2.0925,-4.26 m 0.5413,-9.7975 c -0.1838,0.20125 -0.4163,0.84625 -0.5025,1.16125 -0.1913,0.7 -1.1425,4.06 -1.085,4.68625 0.051,0.5625 0.8637,1.2975 1.4712,1.2 0.5225,-0.0825 1.1763,-3.4925 1.3938,-4.1425 0.3612,-1.07 0.5275,-2.1875 0.62,-3.215 -0.4638,-0.36125 -1.5438,-0.075 -1.8975,0.31"
         id="path5043"
         style="fill:#f4f4f0;fill-opacity:1;fill-rule:nonzero;stroke:none" />
      <path
         d="m 1056.2315,923.20347 c -0.6987,0.2425 -0.9025,0.87875 -1.3162,1.31625 -0.2863,0.3025 -0.7888,0.7875 -1.24,0.96875 -1.2338,0.49625 -5.0525,0.49125 -6.2738,-0.11625 -1.6037,-0.8 -1.7525,-3.435 -1.2762,-5.69375 0.4737,-2.24375 1.7962,-4.2875 3.5612,-5.37625 0.4088,-0.25125 0.685,-0.43625 1.0463,-0.5875 0.98,-0.4075 2.4075,-0.55875 3.6412,-0.54125 0.4538,0.005 3.0363,-10e-4 3.5225,0 0.5975,0 1.3463,-0.6275 1.3175,-1.27875 -0.03,-0.68875 -1.1237,-1.26625 -2.0137,-1.27875 -1.7763,-0.0225 -5.5963,0.925 -5.7688,-1.16125 -0.045,-0.51375 0.2038,-0.9525 0.385,-1.47125 0.1688,-0.475 0.2688,-0.99875 0.5813,-1.23875 0.4412,-0.33875 1.7237,-0.1825 2.5175,-0.195 2.5037,-0.0337 5.0312,-0.0688 7.59,-0.0762 1.4925,-0.005 3.2775,-0.0763 4.2987,0.62 0.9363,0.6375 1.5038,2.03625 1.24,3.755 -0.15,0.975 -2.4612,10.62625 -2.595,11.1925 -0.175,0.7375 -0.5675,1.42 -0.3487,2.3625 0.066,0.2875 0.5612,0.665 0.5037,0.96875 -0.1012,0.5425 -2.6287,0.34125 -3.3312,0.34875 -1.18,0.0125 -2.4363,0.035 -3.5238,0.0388 -0.585,10e-4 -1.6375,0.0187 -2.0125,-0.19375 -0.6875,-0.38875 -0.4425,-1.38625 -0.505,-2.3625 m -0.039,-6.7775 c -0.5538,0.4125 -1.3513,2.8675 -0.8513,3.8725 0.1388,0.28 0.87,0.625 1.2775,0.465 0.46,-0.18 0.5525,-1.45 0.6988,-2.01375 0.205,-0.8025 0.4562,-1.3925 0.4637,-2.285 -0.4362,-0.34625 -1.2212,-0.31125 -1.5887,-0.0388"
         id="path5047"
         style="fill:#f4f4f0;fill-opacity:1;fill-rule:nonzero;stroke:none" />
      <path
         d="m 1032.1455,925.60447 c -1.8662,0.5825 -4.7562,0.10875 -7.0487,0.31 -1.1838,0.1025 -2.0775,0.002 -2.1688,-1.04625 -0.059,-0.67 0.2213,-1.38375 0.3488,-1.93625 0.2725,-1.19125 1.1675,-5.37125 1.3162,-6.04125 0.345,-1.5575 1.7788,-4.05125 0.425,-5.4225 -0.99,-0.2075 -1.4237,0.845 -1.6262,1.58875 -0.2313,0.855 -2.3013,9.42125 -2.4,10.30125 -0.1225,1.0975 0.1287,1.61375 0.5037,2.24625 -0.9662,0.49 -2.4487,0.34375 -3.6412,0.38625 -1.4213,0.0512 -3.09,0.055 -4.6088,-0.0762 -1.7662,-0.155 -1.335,-1.59875 -1.0062,-3.17625 0.4437,-2.135 2.4062,-10.32625 2.9825,-12.47 0.1787,-0.6675 0.4812,-1.5675 0.3862,-2.16875 -0.066,-0.42125 -0.7275,-0.75 -0.6187,-1.12375 0.1412,-0.48875 2.0562,-0.31125 2.7875,-0.30875 1.5537,0.004 3.5537,-0.1525 5.035,0 0.5937,0.06 1.33,0.3525 1.5487,0.735 0.2313,0.40375 0.017,0.88 0.31,1.27875 0.5738,-0.06 0.78,-0.6 1.085,-0.96875 0.3013,-0.36625 0.7588,-0.86875 1.3163,-1.00625 0.53,-0.13125 1.3662,-0.0388 2.1687,-0.0388 0.74,0 1.5175,-0.0862 2.1688,-0.0775 1.4262,0.0187 3.2475,-0.1425 3.795,0.6975 0.255,0.39125 0.1137,1.0625 0.3875,1.355 0.9462,-0.3075 1.0687,-1.21 1.7812,-1.62625 1.1,-0.64375 3.1925,-0.35 4.8025,-0.465 0.38,-0.0275 1.0275,0.0113 1.6263,0.0388 1.5487,0.07 2.5362,0.004 2.4387,1.70375 -0.019,0.3475 -2.005,8.91 -2.3325,10.06625 -0.3025,1.07375 -1.3275,5.3825 -1.1137,6.27625 0.081,0.33625 0.3987,0.55125 0.3487,0.89125 -0.5162,0.37875 -1.3087,0.2625 -2.0525,0.27125 -1.4875,0.015 -2.9187,0.0375 -4.53,0.0375 -1.3725,0 -2.5625,0.18375 -2.7112,-1.045 -0.1,-0.82125 0.2625,-1.94625 0.465,-2.9425 0.2012,-0.99875 2.1912,-8.31875 2.2462,-8.86875 0.067,-0.6925 -0.2175,-1.565 -0.6587,-1.665 -0.7188,-0.165 -1.1775,0.44 -1.3938,0.92875 -0.2687,0.60375 -0.4475,1.53625 -0.5812,2.3625 -0.3275,2.0175 -1.84,7.84375 -1.9363,8.24875 -0.2312,0.96 -0.3162,1.95125 0.155,2.75"
         id="path5051"
         style="fill:#f4f4f0;fill-opacity:1;fill-rule:nonzero;stroke:none" />
      <path
         d="m 1002.9449,907.01522 c 1.0325,-0.45875 2.4337,-0.1425 3.7175,-0.19375 0.8662,-0.035 1.6925,-0.0812 2.44,-0.11625 1.8337,-0.085 3.3312,-0.18125 3.0987,1.93625 -0.054,0.48 -3.36,13.6225 -3.525,15.10375 -0.045,0.405 -0.045,0.76375 0,1.00625 0.054,0.29125 0.4901,0.55375 0.4263,0.81375 -0.11,0.4475 -1.46,0.3625 -2.0138,0.3875 -1.7625,0.08 -3,0.0762 -4.6475,0 -1.3725,-0.0638 -2.49745,0.195 -2.67245,-1.0075 -0.0525,-0.36375 0.0575,-0.9725 0.155,-1.4325 0.34625,-1.62875 2.71245,-11.3075 2.94375,-12.2375 0.2225,-0.9 0.6113,-2.01625 0.5412,-2.905 -0.045,-0.58375 -0.3575,-0.86625 -0.4637,-1.355"
         id="path5055"
         style="fill:#f4f4f0;fill-opacity:1;fill-rule:nonzero;stroke:none" />
    </g>
  </g>
</svg>
