<svg id="Layer_1" data-name="Layer 1" xmlns="http://www.w3.org/2000/svg" viewBox="0 0 394.39 178.48"><defs><style>.cls-1{fill:#ed1c24;}.cls-2{fill:#fff;}.cls-2,.cls-3{fill-rule:evenodd;}.cls-3{fill:none;stroke:#fff;stroke-width:1.67px;}</style></defs><title>marvel_comics</title><rect class="cls-1" width="394.39" height="178.48"/><polygon class="cls-2" points="340.57 25.34 362.64 25.34 362.64 129.94 381.36 129.94 381.36 156.33 340.57 156.33 340.57 25.34"/><path class="cls-3" d="M383.28,32.3a8.4,8.4,0,1,1-8.4-8.4,8.4,8.4,0,0,1,8.4,8.4"/><path class="cls-2" d="M371.6,36.62V27.81h3.91a5.2,5.2,0,0,1,1.79.24,2,2,0,0,1,1,.84,2.5,2.5,0,0,1,.37,1.33,2.22,2.22,0,0,1-.61,1.58,3.07,3.07,0,0,1-1.87.82,3,3,0,0,1,.7.44,6,6,0,0,1,1,1.17l1.52,2.4H377.9l-1.16-1.83q-0.51-.79-0.84-1.21A2.7,2.7,0,0,0,375.3,33a1.74,1.74,0,0,0-.53-0.24,3.48,3.48,0,0,0-.65,0h-1.35v3.91H371.6Zm1.17-4.92h2.5a3.74,3.74,0,0,0,1.25-.17,1.33,1.33,0,0,0,.69-0.53,1.43,1.43,0,0,0,.23-0.79,1.31,1.31,0,0,0-.45-1,2.13,2.13,0,0,0-1.43-.4h-2.79v2.91Z"/><path class="cls-2" d="M16.22,155.85V25.34H46L56.52,80l12-54.7H97.31V142.89L116,25.34h29.27l18.23,117.55V25.82h38.86s13.43,2.4,20.15,21.11l-2.88-21.59h23.51l11,67.65,11.52-67.17h66.21V50.29H312.26V77.16H331v27.35H312.74v25h19.19v26.39h-42.7V30.14L267.16,155.85H240.77L226.86,72.36s-2.4,23-15.35,33.59l16.79,49.9h-23L189,112.19v43.66H142.41L140,143.37H122.26l-3.84,12.48H74.27v-48l-11.52,48h-12l-10.56-47.5v47l-24,.48h0Zm121.39-37.91h0l-6.72-39.82-5.76,39.82h12.48Zm50.86-30.23h0c15.83-1,14.39-20.63,14.39-20.63-2.4-19.19-14.39-18.23-14.39-18.23V87.72Z"/></svg>