<?xml version="1.0" encoding="utf-8"?>
<svg version="1.1" id="Layer_1" xmlns="http://www.w3.org/2000/svg" xmlns:xlink="http://www.w3.org/1999/xlink" x="0px" y="0px"
	 viewBox="0 0 1000 1481.412" enable-background="new 0 0 1000 1481.412" xml:space="preserve">
<g enable-background="new    ">
	<g>
		<g>
			<path d="M333.869,1364.177c-1.664-0.552-4.043-0.953-7.127-1.203c-2.47,0.373-4.535,1.05-6.202,2.037
				c-1.668,0.991-3.366,2.565-5.093,4.722c-1.73,2.164-3.086,5.277-4.073,9.354l-13.889,39.812c-0.865,2.347-0.739,4.17,0.37,5.466
				c1.112,1.293,2.501,2.219,4.167,2.775c1.666,0.556,3.981,0.956,6.945,1.205c0.244,0,1.296-0.188,3.148-0.557
				c1.851-0.371,4.074-1.762,6.665-4.169c2.593-2.404,4.505-6.2,5.74-11.385l13.892-39.816c0.86-2.345,0.737-4.163-0.371-5.462
				C336.927,1365.659,335.537,1364.731,333.869,1364.177z"/>
			<path d="M0,0v1481.412h1000V0H0z M247.674,1385.01l-1.111,3.146H205.64l5.556-15.739c0.862-2.345,0.739-4.163-0.371-5.462
				c-1.112-1.296-2.5-2.224-4.167-2.778c-1.667-0.552-4.045-0.953-7.13-1.203c-2.47,0.373-4.536,1.05-6.202,2.037
				c-1.667,0.991-3.366,2.565-5.094,4.722c-1.73,2.164-3.086,5.277-4.074,9.354l-13.888,39.812c-0.865,2.347-0.739,4.17,0.371,5.466
				c1.112,1.293,2.5,2.219,4.166,2.775c1.668,0.556,3.982,0.956,6.946,1.205c0.244,0,1.295-0.188,3.147-0.557
				c1.852-0.371,4.074-1.762,6.666-4.169c2.591-2.404,4.505-6.2,5.74-11.385l3.148-8.89h40.924l-2.405,7.407
				c-2.349,7.284-5.807,13.303-10.372,18.053c-4.568,4.753-9.383,8.458-14.443,11.112c-5.062,2.659-10.031,4.565-14.906,5.741
				c-4.879,1.17-8.735,1.878-11.573,2.13c-2.842,0.244-4.384,0.367-4.63,0.367c-6.175-0.25-11.481-0.709-15.926-1.39
				c-4.443-0.681-9.137-1.846-14.072-3.516c-4.94-1.667-9.23-4.042-12.871-7.13c-3.643-3.083-6.203-7.035-7.685-11.853
				c-1.482-4.812-1.046-10.739,1.296-17.773l8.703-25.744c2.468-7.279,5.986-13.298,10.556-18.054
				c4.565-4.751,9.379-8.425,14.443-11.018c5.06-2.592,9.999-4.503,14.812-5.738c4.816-1.232,8.64-1.973,11.481-2.224
				c2.839-0.246,4.381-0.368,4.629-0.368c6.296,0.246,11.667,0.739,16.11,1.48c4.445,0.738,9.136,1.914,14.073,3.519
				c4.936,1.603,9.26,3.954,12.964,7.037c3.705,3.087,6.263,7.035,7.684,11.851C250.666,1372.049,250.142,1377.974,247.674,1385.01z
				 M366.186,1410.751c-2.472,7.284-5.989,13.303-10.556,18.053c-4.568,4.753-9.383,8.427-14.444,11.021
				c-5.062,2.591-10,4.505-14.815,5.737c-4.813,1.234-8.641,1.974-11.479,2.226c-2.842,0.244-4.384,0.367-4.629,0.367
				c-6.175-0.25-11.482-0.709-15.925-1.39s-9.138-1.846-14.074-3.516c-4.939-1.667-9.229-4.042-12.869-7.13
				c-3.644-3.083-6.204-7.035-7.685-11.853c-1.482-4.812-1.047-10.739,1.295-17.773l8.705-25.744
				c2.468-7.279,5.986-13.298,10.555-18.054c4.566-4.751,9.381-8.425,14.444-11.018c5.059-2.592,10-4.503,14.813-5.738
				c4.815-1.232,8.64-1.973,11.482-2.224c2.838-0.246,4.381-0.368,4.629-0.368c6.172,0.246,11.48,0.708,15.926,1.385
				c4.441,0.68,9.133,1.852,14.073,3.521c4.936,1.668,9.226,4.047,12.869,7.13c3.641,3.087,6.206,7.035,7.687,11.851
				c1.479,4.814,1.044,10.739-1.3,17.775L366.186,1410.751z M478.405,1444.267l17.218-47.591l-32.035,47.591h-29.814l0.185-47.591
				l-16.852,47.591h-41.294l29.445-82.033l-24.073-15.927h83.696l2.036,38.189l27.04-38.189h60.365l-34.627,97.96H478.405z
				 M550.902,1444.266l29.443-81.847l-24.075-16.112h70.369l-34.443,97.959H550.902z M742.372,1385.01l-1.111,3.146h-40.925
				l5.555-15.739c0.863-2.345,0.743-4.163-0.368-5.462c-1.113-1.296-2.504-2.224-4.165-2.778c-1.669-0.552-4.047-0.953-7.132-1.203
				c-2.471,0.373-4.537,1.05-6.203,2.037c-1.667,0.991-3.366,2.565-5.092,4.722c-1.73,2.164-3.087,5.277-4.076,9.354l-13.889,39.812
				c-0.863,2.347-0.737,4.17,0.373,5.466c1.109,1.293,2.498,2.219,4.166,2.775c1.664,0.556,3.981,0.956,6.941,1.205
				c0.25,0,1.297-0.188,3.149-0.557c1.851-0.371,4.074-1.762,6.666-4.169c2.594-2.404,4.506-6.2,5.74-11.385l3.148-8.89h40.927
				l-2.408,7.407c-2.349,7.284-5.805,13.303-10.372,18.053c-4.566,4.753-9.384,8.458-14.442,11.112
				c-5.064,2.659-10.031,4.565-14.905,5.741c-4.881,1.17-8.738,1.878-11.575,2.13c-2.843,0.244-4.385,0.367-4.631,0.367
				c-6.171-0.25-11.48-0.709-15.924-1.39c-4.442-0.681-9.14-1.846-14.074-3.516c-4.938-1.667-9.229-4.042-12.871-7.13
				c-3.639-3.083-6.202-7.035-7.682-11.853c-1.483-4.812-1.047-10.739,1.296-17.773l8.704-25.744
				c2.469-7.279,5.985-13.298,10.553-18.054c4.567-4.751,9.384-8.425,14.446-11.018c5.06-2.592,9.996-4.503,14.812-5.738
				c4.815-1.232,8.64-1.973,11.482-2.224c2.838-0.246,4.382-0.368,4.63-0.368c6.296,0.246,11.666,0.739,16.108,1.48
				c4.445,0.738,9.135,1.914,14.073,3.519c4.937,1.603,9.261,3.954,12.964,7.037c3.704,3.087,6.263,7.035,7.686,11.851
				C745.363,1372.049,744.841,1377.974,742.372,1385.01z M867.454,1376.68h-39.998l1.851-5.373c0.862-2.342,0.739-4.166-0.371-5.463
				c-1.112-1.297-2.498-2.219-4.165-2.775c-1.669-0.557-4.047-0.955-7.132-1.206c-3.087,0-5.122,0.527-6.108,1.573
				c-0.991,1.054-1.729,2.441-2.223,4.167c-0.618,2.35,0.304,4.446,2.776,6.3c2.468,1.848,5.678,3.699,9.633,5.551
				c3.947,1.853,8.207,3.83,12.774,5.928c4.564,2.102,8.611,4.539,12.13,7.315c3.519,2.778,6.111,5.99,7.775,9.627
				c1.668,3.644,1.639,7.997-0.089,13.058c-1.608,6.173-4.479,11.295-8.614,15.367c-4.135,4.074-8.674,7.193-13.609,9.352
				c-4.939,2.16-9.812,3.735-14.629,4.723c-4.814,0.988-8.672,1.576-11.572,1.758c-2.905,0.185-4.478,0.279-4.722,0.279
				c-8.768,0-16.142-0.681-22.129-2.037c-5.992-1.354-10.898-3.117-14.723-5.279c-3.828-2.158-6.758-4.596-8.798-7.311
				c-2.036-2.718-3.485-5.436-4.349-8.149c-0.865-2.716-1.266-5.335-1.205-7.87c0.062-2.526,0.278-4.721,0.648-6.571h40.554
				l-2.779,8.146c-0.74,2.344-0.556,4.137,0.557,5.367c1.112,1.238,2.501,2.164,4.166,2.779c1.668,0.623,3.981,1.051,6.945,1.299
				c2.841,0,5.278-0.834,7.313-2.502c2.037-1.663,3.611-3.547,4.722-5.646c1.112-2.224,1.143-4.197,0.094-5.93
				c-1.052-1.727-2.844-3.302-5.371-4.722c-2.532-1.416-5.525-2.805-8.98-4.164c-3.457-1.358-7.007-2.808-10.646-4.351
				c-3.644-1.544-7.13-3.272-10.462-5.188c-3.335-1.911-6.147-4.165-8.426-6.756c-2.287-2.594-3.799-5.588-4.536-8.983
				c-0.741-3.392-0.31-7.373,1.294-11.938c1.232-4.939,3.824-9.016,7.776-12.226c3.95-3.209,8.335-5.677,13.151-7.407
				c4.812-1.729,9.595-2.991,14.349-3.797c4.752-0.801,8.579-1.265,11.479-1.388c2.901-0.12,4.475-0.185,4.723-0.185
				c12.1,0,21.634,1.234,28.612,3.703c6.974,2.469,12.157,5.524,15.551,9.166c3.397,3.64,5.466,7.438,6.206,11.387
				C867.639,1370.262,867.822,1373.716,867.454,1376.68z M985.428,1312.578H15.003v-15.272h970.425V1312.578z M237.337,1162.27
				h70.366l-13.147,37.778h22.592l13.517-37.778h40.738l-34.626,97.96h-41.11l13.147-36.852h-22.592l-12.961,36.852h-41.294
				l29.443-81.851L237.337,1162.27z M373.251,1222.454l8.706-25.743c2.465-7.279,5.984-13.298,10.556-18.053
				c4.565-4.75,9.377-8.426,14.441-11.018c5.062-2.593,10-4.504,14.815-5.737c4.815-1.234,8.64-1.974,11.48-2.226
				c2.839-0.246,4.378-0.367,4.63-0.367c6.172,0.245,11.483,0.707,15.924,1.384c4.447,0.682,9.134,1.854,14.074,3.522
				c4.936,1.666,9.227,4.044,12.87,7.129c3.64,3.088,6.202,7.033,7.684,11.852c1.481,4.814,1.05,10.739-1.295,17.776l-8.705,25.739
				c-2.471,7.284-5.99,13.302-10.555,18.053c-4.571,4.753-9.383,8.426-14.443,11.021c-5.065,2.591-10,4.504-14.815,5.737
				c-4.816,1.232-8.64,1.974-11.48,2.227c-2.84,0.244-4.384,0.367-4.628,0.367c-6.175-0.25-11.483-0.711-15.927-1.391
				s-9.136-1.847-14.073-3.516c-4.943-1.669-9.229-4.043-12.872-7.13c-3.644-3.083-6.202-7.034-7.683-11.851
				C370.475,1235.416,370.911,1229.489,373.251,1222.454z M495.283,1162.27h83.515c4.813,0,9.071,0.531,12.777,1.575
				c3.703,1.05,6.787,2.163,9.259,3.335c2.469,1.173,4.999,2.808,7.593,4.907c1.972,2.59,3.424,5.093,4.352,7.499
				c0.926,2.402,1.541,5.369,1.854,8.889c0.303,3.515-0.278,7.498-1.763,11.942c-0.493,2.223-1.387,4.384-2.687,6.481
				c-1.294,2.102-2.656,3.92-4.072,5.462c-1.419,1.546-3.18,3.241-5.277,5.095c-3.211,2.468-6.668,4.384-10.371,5.739
				c-3.699,1.358-7.221,2.347-10.553,2.966l13.516,34.069h-37.589l-12.964-33.147l-11.664,33.147h-41.294l29.442-81.851
				L495.283,1162.27z M662.495,1239.117c1.112,1.237,2.502,2.163,4.167,2.778c1.666,0.623,3.981,1.05,6.945,1.298
				c2.839,0,5.276-0.834,7.313-2.501c2.037-1.665,3.609-3.547,4.722-5.646c1.113-2.223,1.142-4.196,0.095-5.929
				c-1.051-1.727-2.844-3.301-5.371-4.721c-2.532-1.416-5.526-2.805-8.982-4.167c-3.455-1.355-7.006-2.804-10.646-4.349
				c-3.642-1.545-7.13-3.273-10.46-5.187c-3.337-1.912-6.146-4.166-8.428-6.757c-2.285-2.594-3.798-5.589-4.537-8.983
				c-0.74-3.394-0.307-7.375,1.296-11.942c1.232-4.936,3.825-9.012,7.776-12.223c3.951-3.207,8.335-5.676,13.151-7.406
				c4.812-1.729,9.593-2.992,14.35-3.796c4.753-0.804,8.578-1.266,11.479-1.39c2.901-0.12,4.475-0.185,4.723-0.185
				c12.1,0,21.633,1.234,28.613,3.704c6.971,2.467,12.155,5.525,15.552,9.165c3.396,3.642,5.465,7.438,6.204,11.386
				c0.741,3.957,0.926,7.409,0.557,10.373h-39.999l1.852-5.372c0.86-2.342,0.742-4.167-0.37-5.462
				c-1.112-1.296-2.499-2.221-4.166-2.776c-1.669-0.557-4.045-0.954-7.131-1.205c-3.088,0-5.124,0.528-6.112,1.572
				c-0.986,1.054-1.728,2.441-2.219,4.167c-0.621,2.348,0.305,4.447,2.775,6.3c2.468,1.851,5.678,3.698,9.632,5.552
				c3.948,1.852,8.207,3.829,12.775,5.928c4.564,2.1,8.609,4.538,12.131,7.313c3.517,2.78,6.108,5.991,7.775,9.628
				c1.666,3.643,1.637,7.997-0.092,13.058c-1.606,6.175-4.478,11.296-8.611,15.369c-4.137,4.073-8.675,7.19-13.611,9.349
				c-4.94,2.162-9.812,3.736-14.627,4.724c-4.815,0.988-8.675,1.576-11.574,1.76c-2.903,0.183-4.479,0.276-4.72,0.276
				c-8.77,0-16.142-0.68-22.13-2.036c-5.992-1.355-10.897-3.116-14.722-5.278c-3.829-2.158-6.76-4.595-8.797-7.312
				s-3.487-5.433-4.351-8.148c-0.864-2.716-1.267-5.337-1.205-7.87c0.062-2.528,0.278-4.722,0.648-6.572h40.554l-2.779,8.146
				C661.199,1236.094,661.385,1237.885,662.495,1239.117z M748.973,1162.27h120.55l-8.331,23.334h-49.998l-5.188,15h26.853
				l-8.517,23.331h-26.666l-4.444,12.963h49.997l-8.33,23.332h-91.293l29.443-81.851L748.973,1162.27z M985.428,1127.99H15.003
				v-15.216h970.425V1127.99z M337.352,978.236h70.37c5.923,0.37,11.017,0.957,15.273,1.759c4.26,0.806,8.706,2.068,13.333,3.795
				c4.628,1.732,8.674,4.14,12.131,7.224c3.456,3.089,5.833,6.975,7.129,11.665c1.297,4.694,0.707,10.435-1.758,17.223
				l-6.853,18.886c-2.591,7.288-6.234,13.272-10.927,17.962c-4.691,4.692-9.534,8.367-14.537,11.021
				c-4.997,2.653-9.88,4.602-14.628,5.835c-4.755,1.234-8.52,1.974-11.295,2.217c-2.775,0.252-4.29,0.374-4.537,0.374h-59.072
				l29.445-81.851L337.352,978.236z M481.788,978.236h87.771l2.781,97.959h-42.959l0.18-10.557h-29.624l-6.667,10.557H450.68
				l55.366-82.035L481.788,978.236z M600.113,978.236h83.517c4.812,0,9.072,0.527,12.775,1.573c3.705,1.05,6.789,2.163,9.263,3.335
				c2.466,1.176,4.997,2.81,7.59,4.906c1.973,2.592,3.426,5.094,4.353,7.503c0.924,2.401,1.54,5.365,1.852,8.887
				c0.305,3.515-0.278,7.497-1.761,11.94c-0.492,2.225-1.387,4.384-2.686,6.482c-1.297,2.101-2.655,3.919-4.072,5.463
				c-1.421,1.544-3.183,3.242-5.275,5.093c-3.214,2.469-6.67,4.385-10.374,5.741c-3.701,1.359-7.219,2.346-10.551,2.965
				l13.516,34.07h-37.591l-12.965-33.146l-11.662,33.146h-41.296l29.444-81.851L600.113,978.236z M731.59,978.236h70.363
				l-13.887,39.44l37.035-39.44h44.997l-46.85,50.553l12.407,47.406h-41.293l-10.555-46.295l-16.297,46.295h-41.293l29.441-81.851
				L731.59,978.236z M986.849,943.181H703.091c0,0,56.424-137.185,44.295-287.06C731.38,458.369,635.649,336.919,635.649,336.919
				s138.67,98.518,142.027,380.361c1.283,107.87-28.504,196.6-28.504,196.6h136.738c0,0,17.795-44.578,26.648-85.731
				c12.366-57.461,14.075-115.735,14.075-115.735s-19.193,29.003-28.362,39.725c-18.578,21.718-30.58,26.864-30.58,26.864
				s26.729-38.685,44.151-105.166c16.287-62.152,13.568-130.02,13.568-130.02s-23.428,40.861-44.004,60.581
				c-7.612,7.292-14.861,10.002-14.861,10.002s20.005-43.439,28.149-97.879c9.562-63.912,0.138-115.014,0.138-115.014
				s-17.672,30.877-23.714,39.572c-10.716,15.433-26.579,27.583-26.579,27.583s16.721-51.586,16.293-107.311
				c-0.488-63.45-22.87-101.297-22.87-101.297s-14.423,46-25.997,66.576c-4.654,8.277-12.293,17.437-12.293,17.437
				s-0.137-56.015-11.712-107.024c-12.777-56.324-49.443-94.155-49.443-94.155s-2.208,44.645-3.279,58.149
				c-2.144,27.005-12.157,44.728-12.157,44.728s-7.56-40.013-36.134-82.59c-44.236-65.917-90.177-88.011-90.177-88.011
				s13.302,34.142,18.018,57.289c4.712,23.134,3.416,45.872,3.416,45.872s-45.918-44.868-101.147-70.734
				c-67.728-31.72-132.326-41.856-132.326-41.856s63.312,55.574,82.173,77.436c10.26,11.891,12.417,18.009,12.417,18.009
				s-55.857-25.156-168.446-34.727c-79.406-6.752-157.616,6.724-157.616,6.724s83.031,21.566,141.756,47.714
				c19.091,8.502,29.423,14.582,29.423,14.582S255.58,207.038,211,221.183C113.966,251.975,73.82,288.625,73.82,288.625
				s71.263-7.03,110.605-10.009c28.291-2.144,79.729,0.429,79.729,0.429l-88.303,90.872l18.433,48.868
				c0,0-15.023,91.402-18.433,110.59c-3.771,21.217-10.287,51.012-10.287,51.012s-5.664,31.934-8.144,42.005
				c-2.452,9.97-12.146,38.012-12.146,38.012l19.145,33.149l-1.854,39.862l66.869,41.579l6.858-5.142
				c0,0,1.384-19.944,18.003-43.724c16.578-23.719,34.293-31.148,36.436-30.291c1.903,0.759,7.252,21.59,4.007,38.578
				c-5.572,29.154-11.434,40.437-11.434,40.437s1.269,2.362,2.003,2.717c0.801,0.395,4.143,0.286,4.138,0.286
				c0,0,5.944-3.451,13.721-7.287c9.859-4.863,21.651-10.069,29.149-17.286c15.431-14.86,25.435-37.15,32.433-48.438
				c1.151-1.852,0.835-7.75,0.289-9.859c-4.146-15.86-17.309-20.147-17.864-50.582c-0.281-15.57,12.952-70.224,22.578-71.439
				c1.146-0.14,26.367-24.443,40.152-32.861c24.214-14.791,48-43.08,52.86-83.446c6.574-54.624-13.433-80.407-13.433-80.407
				s33.005,20.254,28.29,85.407c-4.775,66.009-50.72,97.02-50.72,97.02s50.199,53.983-18.432,202.034
				C346.742,893.876,223.08,943.181,223.08,943.181H16.426V15.003h970.431L986.849,943.181z M305.194,385.357
				c0.289,6.856-23.68,53.367-30.967,55.615c-14.561,4.498-32.294-15.716-32.294-15.716s50.402-50.724,54.583-50.58
				C299.821,374.792,304.907,378.498,305.194,385.357z M219.681,646.292c0,0,2.333,0.286,3.537,0.648
				c9.967,2.998,17.039,13.929,17.036,24.049c0,13.999-9.966,25.346-24.701,25.346c-13.642,0-24.702-12.112-24.702-22.612
				c0-0.826,0-3.639,0-3.639s8.897,17.355,20.041,17.145c14.277-0.274,15.88-13.491,16.254-15.538
				C229.289,659.976,219.681,646.292,219.681,646.292z"/>
			<path d="M396.147,1054.527c1.666-0.985,3.362-2.592,5.093-4.812c1.725-2.226,3.082-5.371,4.072-9.442l11.851-32.779
				c0.86-2.344,0.767-4.166-0.277-5.462c-1.052-1.297-2.409-2.225-4.072-2.775c-1.668-0.557-4.046-0.959-7.134-1.205h-4.812
				l-20.739,58.516h9.812C392.414,1056.196,394.479,1055.519,396.147,1054.527z"/>
			<path d="M572.13,1202.254c0.865-0.371,1.636-0.967,2.315-1.774c0.681-0.812,1.232-1.683,1.667-2.62
				c0.434-0.933,0.741-1.841,0.925-2.716c0.188-0.872,0.278-1.562,0.278-2.056c0-0.998-0.124-1.904-0.368-2.715
				c-0.249-0.807-0.864-1.71-1.852-2.711c-2.225-1.375-4.757-2.059-7.593-2.059h-10l-6.296,17.959h11.852
				C566.269,1203.562,569.292,1203.129,572.13,1202.254z"/>
			<polygon points="533.084,1012.31 507.157,1053.049 530.861,1052.865 			"/>
			<path d="M676.963,1018.219c0.863-0.371,1.634-0.967,2.313-1.772c0.681-0.812,1.234-1.684,1.669-2.621
				c0.432-0.932,0.739-1.841,0.923-2.716c0.188-0.873,0.278-1.561,0.278-2.055c0-0.999-0.124-1.905-0.368-2.717
				c-0.247-0.809-0.863-1.712-1.852-2.712c-2.225-1.372-4.755-2.057-7.592-2.057h-10l-6.296,17.96h11.853
				C671.099,1019.529,674.123,1019.092,676.963,1018.219z"/>
			<path d="M414.267,1243.102c1.668,0.555,3.987,0.955,6.946,1.204c0.247,0,1.299-0.188,3.148-0.557
				c1.855-0.372,4.076-1.761,6.667-4.17c2.592-2.403,4.503-6.2,5.739-11.385l13.887-39.814c0.864-2.344,0.743-4.165-0.367-5.461
				c-1.112-1.298-2.5-2.226-4.168-2.78c-1.666-0.553-4.043-0.953-7.132-1.203c-2.467,0.374-4.534,1.05-6.201,2.037
				c-1.668,0.99-3.362,2.566-5.09,4.723c-1.731,2.163-3.087,5.275-4.076,9.352l-13.887,39.812c-0.864,2.347-0.741,4.168,0.368,5.466
				C411.214,1241.621,412.604,1242.545,414.267,1243.102z"/>
		</g>
	</g>
</g>
</svg>
