<?xml version="1.0" encoding="utf-8"?>
<svg version="1.1" id="Layer_1" xmlns="http://www.w3.org/2000/svg" xmlns:xlink="http://www.w3.org/1999/xlink" x="0px" y="0px"
	 width="300px" height="300px" viewBox="0 0 300 300" enable-background="new 0 0 300 300" xml:space="preserve">
<g>
	<path fill="#3C5D9F" d="M177.788,222.331c5.994,0,44.975,3,57.397-41.12c11.565-41.981,31.797-118.22,31.797-118.22
		s-37.695,0-52.688,0c-14.986,0-45.829,2.996-54.397,29.984c-8.567,26.981-24.801,87.716-26.981,98.088
		c-5.14,24.411,11.563,30.836,22.268,30.836C165.822,221.899,171.79,222.331,177.788,222.331z"/>
	<path fill="#2C457B" d="M216.099,100.759c-1.023,3.246-3.852,14.166-7.261,27.334h36.281c7.552-28.813,14.835-57.243,14.835-57.243
		s-33.053,0.108-46.193,0c-19.264-0.151-42.401,10.554-48.826,31.545c-7.511,24.542-20.737,75.472-22.539,84.92
		c-5.626,29.448,10.139,28.045,19.531,28.045c8.022,0,16.384,0.114,33.424,0.114c8.995,0,28.267-11.558,34.265-30.409
		c1.848-5.806,5.824-20.387,10.306-37.268h-36.22c-5.165,19.628-10.364,38.649-12.345,42.405
		c-4.095,7.754-10.527,10.144-21.422,9.713c4.54-1.724,5.313-4.875,8.038-13.053c2.721-8.181,16.34-60.276,21.336-78.788
		c4.993-18.513,15.436-22.815,25.869-21.955C219.276,89.562,217.465,96.451,216.099,100.759z"/>
	<path fill="#3C5D9F" d="M72.418,62.991l-41.979,159.34c0,0,37.694,0,52.685,0c14.993,0,45.834-2.997,54.402-29.986
		c8.568-26.988,24.802-87.72,26.981-98.084c5.14-24.418-11.562-30.844-22.269-30.844C126.388,63.417,72.418,62.991,72.418,62.991z"
		/>
	<linearGradient id="SVGID_1_" gradientUnits="userSpaceOnUse" x1="133.3174" y1="229.4482" x2="365.8983" y2="230.0908">
		<stop  offset="0.0056" style="stop-color:#FFFFFF"/>
		<stop  offset="1" style="stop-color:#3C5D9F"/>
	</linearGradient>
	<path fill="url(#SVGID_1_)" d="M134.523,202.194c-0.383-0.28-0.766-0.574-1.148-0.865c-4.303,6.797-10.387,11.429-17.016,14.573
		c0.215,0.154,0.419,0.306,0.604,0.431c5.57,3.854,110.509,77.954,151.637,18.421C229.188,270.733,164.508,224.47,134.523,202.194z"
		/>
	<path fill="#2C457B" d="M138.923,71.246c-13.896,0-60.08-0.12-60.08-0.12L40.896,215.751c0,0,33.051,0,46.197,0
		c13.145,0,40.187-2.729,47.701-27.265c7.515-24.536,21.86-79.747,23.664-89.2C164.08,69.842,148.318,71.246,138.923,71.246z
		 M122.723,100.759c-2.344,9.47-20.667,81.696-24.747,89.443c-4.087,7.754-10.528,10.144-21.417,9.713
		c4.536-1.724,5.313-4.875,8.034-13.053c2.727-8.181,16.342-60.276,21.335-78.788c4.995-18.513,4.897-16.672,0.896-20.958
		C121.675,86.265,126.249,86.55,122.723,100.759z"/>
	<path fill="#FFFFFF" d="M213.532,98.616c-1.023,3.246-3.854,14.167-7.265,27.338h36.282c7.552-28.816,14.834-57.241,14.834-57.241
		s-33.049,0.104-46.2,0c-19.261-0.156-42.395,10.555-48.819,31.54c-7.511,24.542-20.455,75.531-22.539,84.923
		c-1.079,4.854-2.855,10.27-3.25,14.363c-0.902,9.353,16.429,13.683,22.776,13.683c8.026,0,16.389,0.11,33.421,0.11
		c9.002,0,28.273-11.558,34.271-30.413c1.849-5.795,5.825-20.376,10.313-37.265h-36.23c-5.162,19.629-10.361,38.649-12.35,42.412
		c-4.087,7.747-10.519,10.137-21.414,9.706c4.54-1.724,5.313-4.875,8.038-13.053c2.721-8.182,16.34-60.271,21.329-78.782
		c5-18.513,15.435-22.821,25.877-21.963C216.706,87.425,214.895,94.308,213.532,98.616z"/>
	<path fill="#FFFFFF" d="M136.355,69.102c-13.897,0-60.082-0.112-60.082-0.112L38.322,213.611c0,0,33.054,0,46.201,0
		c13.145,0,40.187-2.731,47.701-27.268c7.509-24.537,21.86-79.749,23.661-89.195C161.511,67.699,145.742,69.102,136.355,69.102z
		 M120.153,98.616c-2.347,9.47-20.665,81.697-24.746,89.451c-4.087,7.747-10.528,10.137-21.416,9.706
		c4.534-1.724,5.311-4.875,8.032-13.053c2.727-8.182,16.342-60.271,21.335-78.782c4.995-18.513,4.897-16.677,0.896-20.958
		C119.105,84.122,123.673,84.407,120.153,98.616z"/>
	<linearGradient id="SVGID_2_" gradientUnits="userSpaceOnUse" x1="66.3262" y1="230.7676" x2="265.4984" y2="18.1032">
		<stop  offset="0.3764" style="stop-color:#3C5D9F"/>
		<stop  offset="0.7921" style="stop-color:#2C457A"/>
	</linearGradient>
	<path fill="url(#SVGID_2_)" d="M34.721,44.571c-0.044,0.363-0.086,0.723-0.125,1.086c-0.006,0.009-0.006,0.026-0.006,0.037
		c-0.037,0.346-0.07,0.696-0.101,1.042c-0.005,0.103-0.011,0.201-0.022,0.302c-0.022,0.26-0.044,0.525-0.059,0.784
		c-0.005,0.112-0.005,0.221-0.017,0.333c-0.011,0.249-0.027,0.497-0.039,0.745c-0.005,0.14-0.011,0.28-0.011,0.422
		c-0.009,0.221-0.02,0.442-0.02,0.663c-0.005,0.147-0.005,0.293-0.005,0.438c-0.006,0.215-0.011,0.433-0.011,0.642
		c0,0.151,0.005,0.302,0.005,0.453c0.006,0.212,0.006,0.421,0.011,0.631c0,0.157,0.005,0.318,0.011,0.475
		c0.004,0.201,0.009,0.405,0.015,0.605c0.011,0.179,0.022,0.35,0.027,0.528c0.011,0.184,0.017,0.368,0.028,0.551
		c0.011,0.167,0.026,0.335,0.037,0.502c0.011,0.195,0.028,0.388,0.044,0.578c0.011,0.173,0.025,0.346,0.042,0.517
		c0.017,0.19,0.033,0.374,0.05,0.562c0.015,0.179,0.037,0.357,0.059,0.536c0.017,0.183,0.037,0.361,0.059,0.545
		c0.022,0.179,0.042,0.361,0.07,0.545c0.022,0.179,0.044,0.352,0.064,0.529c0.027,0.184,0.055,0.368,0.081,0.552
		c0.027,0.171,0.049,0.35,0.075,0.522c0.028,0.184,0.061,0.361,0.086,0.545c0.033,0.179,0.061,0.357,0.092,0.534
		c0.027,0.178,0.064,0.363,0.098,0.546c0.033,0.171,0.064,0.35,0.098,0.529c0.031,0.173,0.07,0.352,0.101,0.522
		c0.039,0.184,0.072,0.368,0.108,0.547c0.039,0.173,0.076,0.344,0.114,0.518c0.037,0.184,0.081,0.374,0.118,0.556
		c0.044,0.179,0.087,0.357,0.125,0.536c0.042,0.177,0.086,0.355,0.123,0.534c0.048,0.188,0.098,0.377,0.146,0.572
		c0.044,0.162,0.081,0.33,0.125,0.492c0.048,0.193,0.101,0.383,0.151,0.571c0.042,0.167,0.086,0.335,0.134,0.497
		c0.05,0.189,0.103,0.383,0.156,0.572c0.05,0.162,0.092,0.33,0.14,0.492c0.061,0.193,0.114,0.383,0.173,0.573
		c0.05,0.167,0.098,0.329,0.146,0.491c0.061,0.193,0.125,0.389,0.184,0.582c0.05,0.162,0.098,0.318,0.151,0.48
		c0.064,0.195,0.131,0.388,0.195,0.589c0.048,0.157,0.103,0.313,0.157,0.47c0.064,0.195,0.129,0.383,0.193,0.578
		c0.056,0.162,0.114,0.318,0.168,0.48c0.07,0.193,0.142,0.388,0.211,0.583c0.054,0.156,0.112,0.318,0.173,0.475
		c0.07,0.199,0.145,0.399,0.221,0.598c0.059,0.151,0.112,0.302,0.167,0.453c0.081,0.206,0.162,0.405,0.243,0.611
		c0.053,0.146,0.106,0.291,0.167,0.437c0.081,0.211,0.166,0.416,0.247,0.622c0.061,0.146,0.12,0.285,0.173,0.431
		c0.087,0.212,0.179,0.416,0.265,0.626c0.059,0.142,0.114,0.282,0.173,0.416c0.092,0.21,0.184,0.422,0.269,0.631
		c0.061,0.14,0.12,0.276,0.179,0.417c0.092,0.204,0.184,0.41,0.276,0.615c0.064,0.142,0.123,0.287,0.188,0.427
		c0.092,0.204,0.189,0.416,0.282,0.62c0.064,0.14,0.129,0.276,0.193,0.416c0.098,0.21,0.195,0.422,0.298,0.631
		c0.064,0.135,0.123,0.271,0.188,0.405c0.103,0.215,0.206,0.433,0.313,0.648c0.061,0.129,0.125,0.254,0.184,0.383
		c0.109,0.221,0.215,0.444,0.33,0.659c0.059,0.124,0.12,0.249,0.184,0.372c0.107,0.217,0.215,0.433,0.324,0.648
		c0.064,0.13,0.129,0.254,0.193,0.383c0.114,0.223,0.226,0.438,0.34,0.653c0.064,0.125,0.129,0.249,0.195,0.369
		c0.118,0.226,0.237,0.453,0.355,0.679c0.064,0.114,0.125,0.226,0.184,0.346c0.124,0.226,0.249,0.458,0.372,0.685
		c0.059,0.114,0.12,0.221,0.179,0.33c0.123,0.227,0.249,0.453,0.377,0.681c0.059,0.112,0.125,0.227,0.184,0.333
		c0.129,0.232,0.259,0.466,0.388,0.692c0.059,0.107,0.12,0.215,0.184,0.324c0.134,0.232,0.269,0.469,0.405,0.707
		c0.059,0.098,0.112,0.199,0.173,0.296c0.14,0.243,0.28,0.48,0.42,0.718c0.055,0.098,0.108,0.195,0.167,0.287
		c0.14,0.243,0.282,0.48,0.427,0.718c0.053,0.096,0.112,0.188,0.167,0.286c0.146,0.243,0.296,0.491,0.441,0.734
		c0.056,0.086,0.109,0.173,0.162,0.265c0.151,0.243,0.302,0.49,0.455,0.733c0.053,0.086,0.101,0.173,0.156,0.259
		c0.151,0.238,0.296,0.48,0.447,0.718c0.059,0.092,0.114,0.184,0.173,0.276c0.151,0.243,0.307,0.486,0.464,0.735
		c0.053,0.079,0.103,0.166,0.156,0.247c0.162,0.254,0.33,0.508,0.492,0.762c0.042,0.075,0.092,0.146,0.14,0.221
		c0.173,0.265,0.341,0.528,0.514,0.788c0.042,0.064,0.081,0.125,0.124,0.184c0.173,0.265,0.346,0.528,0.519,0.788
		c0.037,0.064,0.081,0.129,0.124,0.19c0.178,0.269,0.357,0.534,0.534,0.804c0.039,0.054,0.076,0.107,0.109,0.168
		c0.184,0.269,0.366,0.534,0.55,0.804c0.033,0.053,0.07,0.107,0.108,0.162c0.188,0.274,0.372,0.55,0.567,0.83
		c0.025,0.044,0.053,0.087,0.086,0.125c0.193,0.285,0.388,0.565,0.582,0.852c0.028,0.032,0.055,0.07,0.076,0.103
		c0.201,0.286,0.399,0.571,0.6,0.858c0.022,0.031,0.042,0.064,0.064,0.097c0.21,0.296,0.421,0.593,0.631,0.889
		c0.011,0.017,0.022,0.039,0.039,0.056c0.21,0.302,0.425,0.598,0.637,0.896c0.011,0.015,0.022,0.031,0.031,0.042
		c0.896,1.258,1.798,2.5,2.706,3.73l2.132-8.091c-9.799-24.218-10.981-46.131,4.373-57.344
		c2.785-2.036,35.981-21.843,110.082,25.271c0.438,0.28,0.865,0.567,1.296,0.847c3.575-2.035,7.375-3.573,11.197-4.735
		C128.089,15.386,57.961-0.085,24.992,32.882C-4.694,62.57,4.911,122.381,44.346,178.461l0.227-0.674c0,0-1.283-8.148,2.57-8.999
		c9.21-2.04,16.396,0.501,23.938,5.696c-0.843-0.892-1.679-1.794-2.517-2.699C10.33,108.804,13.736,64.702,34.721,44.571z
		 M248.024,133.924c-0.832,3.093-1.668,6.186-2.5,9.258c15.91,31.236,16.51,59.601,7.651,72.292
		c-10.906,15.623-37.876,18.333-70.215,6.882c-0.287,0.007-0.574,0.011-0.836,0.011c-10.791-4.189-30.449-12.684-46.845-24.459
		c-0.589,1.197-1.231,2.331-1.917,3.417c0.383,0.291,0.777,0.589,1.16,0.869c11.096,8.244,26.928,19.765,44.479,29.19
		c0.42,0.231,0.854,0.452,1.281,0.681c0.041,0.026,0.096,0.052,0.141,0.074c1.369,0.718,2.742,1.432,4.123,2.117
		c0.06,0.032,0.118,0.062,0.177,0.084c0.401,0.206,0.799,0.405,1.2,0.601c0.074,0.033,0.141,0.066,0.21,0.103
		c0.449,0.218,0.895,0.438,1.352,0.648c0,0.004,0,0.004,0.004,0.004c0.475,0.228,0.957,0.46,1.436,0.681
		c0,0.008,0.004,0.008,0.004,0.008c0.449,0.202,0.888,0.408,1.337,0.614c0.092,0.041,0.177,0.081,0.261,0.118
		c0.38,0.173,0.759,0.346,1.142,0.52c0.085,0.033,0.166,0.073,0.254,0.114c0.928,0.408,1.845,0.806,2.772,1.207
		c0.062,0.022,0.122,0.044,0.173,0.07c0.395,0.166,0.788,0.335,1.193,0.497c0.104,0.044,0.214,0.085,0.32,0.129
		c0.36,0.15,0.729,0.298,1.09,0.449c0.104,0.037,0.199,0.073,0.302,0.114c0.917,0.371,1.838,0.722,2.758,1.067
		c0.092,0.037,0.185,0.066,0.272,0.104c0.372,0.132,0.732,0.275,1.104,0.404c0.122,0.048,0.243,0.093,0.365,0.129
		c0.353,0.137,0.71,0.254,1.06,0.383c0.11,0.033,0.225,0.078,0.324,0.114c0.913,0.317,1.83,0.619,2.751,0.917
		c0.117,0.037,0.231,0.07,0.346,0.106c0.343,0.114,0.685,0.218,1.023,0.324c0.14,0.044,0.276,0.089,0.412,0.133
		c0.343,0.1,0.696,0.202,1.042,0.306c0.107,0.033,0.222,0.07,0.332,0.103c0.46,0.129,0.924,0.258,1.377,0.391
		c0.029,0.011,0.052,0.015,0.077,0.019c0.427,0.121,0.854,0.235,1.277,0.343c0.133,0.036,0.262,0.073,0.401,0.106
		c0.324,0.088,0.648,0.169,0.973,0.25c0.144,0.037,0.29,0.07,0.441,0.107c0.335,0.084,0.674,0.165,1.02,0.246
		c0.114,0.029,0.222,0.052,0.335,0.077c0.461,0.107,0.906,0.207,1.363,0.303c0.073,0.015,0.15,0.033,0.225,0.048
		c0.371,0.081,0.743,0.158,1.119,0.231c0.15,0.029,0.291,0.056,0.435,0.089c0.312,0.059,0.622,0.114,0.942,0.177
		c0.15,0.021,0.294,0.048,0.445,0.081c0.346,0.059,0.692,0.113,1.038,0.177c0.104,0.011,0.203,0.032,0.313,0.051
		c0.441,0.074,0.891,0.141,1.336,0.203c0.104,0.019,0.214,0.033,0.324,0.052c0.343,0.04,0.67,0.092,1.013,0.132
		c0.154,0.022,0.312,0.044,0.464,0.056c0.302,0.044,0.604,0.081,0.909,0.106c0.147,0.022,0.299,0.037,0.449,0.056
		c0.357,0.036,0.715,0.069,1.061,0.103c0.089,0.004,0.181,0.015,0.272,0.026c0.445,0.036,0.876,0.069,1.318,0.103
		c0.129,0.011,0.254,0.015,0.379,0.022c0.316,0.021,0.637,0.044,0.95,0.059c0.154,0.004,0.312,0.015,0.468,0.022
		c0.298,0.011,0.596,0.021,0.891,0.033c0.151,0.003,0.302,0.011,0.453,0.011c0.368,0.008,0.729,0.015,1.104,0.019
		c0.07,0,0.14,0,0.21,0c0.431,0.007,0.861,0,1.288-0.004c0.141-0.007,0.27-0.007,0.405-0.011c0.31-0.004,0.604-0.015,0.906-0.026
		c0.162-0.007,0.32-0.011,0.471-0.021c0.299-0.008,0.593-0.022,0.884-0.044c0.144-0.004,0.287-0.016,0.435-0.026
		c0.405-0.022,0.813-0.055,1.227-0.092c0.036,0,0.069-0.008,0.106-0.008c0.405-0.036,0.813-0.081,1.226-0.121
		c0.141-0.019,0.276-0.033,0.42-0.044c0.287-0.037,0.586-0.078,0.869-0.114c0.151-0.022,0.31-0.044,0.46-0.06
		c0.295-0.048,0.59-0.084,0.88-0.136c0.137-0.022,0.276-0.04,0.405-0.062c0.42-0.07,0.836-0.14,1.252-0.221
		c0.066-0.012,0.129-0.03,0.195-0.045c0.357-0.065,0.707-0.136,1.063-0.21c0.141-0.032,0.28-0.065,0.42-0.099
		c0.287-0.062,0.567-0.122,0.844-0.199c0.15-0.033,0.302-0.07,0.452-0.103c0.291-0.074,0.59-0.151,0.88-0.232
		c0.126-0.037,0.243-0.07,0.369-0.096c0.404-0.121,0.81-0.232,1.211-0.361c0.092-0.029,0.181-0.055,0.272-0.08
		c0.316-0.104,0.637-0.203,0.954-0.31c0.14-0.056,0.283-0.096,0.427-0.147c0.269-0.096,0.545-0.191,0.817-0.291
		c0.144-0.052,0.283-0.106,0.431-0.154c0.298-0.122,0.593-0.232,0.895-0.354c0.104-0.037,0.206-0.081,0.313-0.118
		c0.394-0.162,0.787-0.327,1.182-0.501c0.1-0.048,0.202-0.092,0.306-0.14c0.294-0.133,0.593-0.265,0.884-0.405
		c0.14-0.065,0.279-0.132,0.416-0.194c0.265-0.129,0.533-0.262,0.791-0.391c0.144-0.073,0.272-0.14,0.413-0.21
		c0.302-0.154,0.61-0.324,0.913-0.486c0.084-0.048,0.165-0.092,0.246-0.136c0.391-0.21,0.766-0.424,1.149-0.651
		c0.103-0.066,0.213-0.129,0.323-0.195c0.272-0.162,0.553-0.335,0.829-0.509c0.129-0.081,0.265-0.161,0.397-0.246
		c0.262-0.166,0.512-0.335,0.773-0.509c0.129-0.084,0.246-0.165,0.379-0.246c0.32-0.221,0.645-0.449,0.969-0.682
		c0.044-0.033,0.099-0.065,0.146-0.096c0.372-0.272,0.733-0.545,1.102-0.82c0.114-0.081,0.217-0.17,0.331-0.251
		c0.258-0.202,0.522-0.408,0.777-0.618c0.129-0.104,0.254-0.203,0.375-0.31c0.262-0.21,0.508-0.416,0.763-0.63
		c0.106-0.099,0.228-0.191,0.338-0.294c0.354-0.306,0.715-0.619,1.072-0.942c-41.128,59.533-146.066-14.566-151.637-18.421
		c-0.151-0.107-0.324-0.229-0.503-0.357c-0.031-0.022-0.064-0.044-0.101-0.07v-0.003c-11.602,5.493-24.877,6.429-33.235,6.429
		c-0.188,0-0.389,0-0.582,0c63.524,59.746,141.281,79.894,176.539,44.64C286.563,239.488,280.385,186.186,248.024,133.924z"/>
	<linearGradient id="SVGID_3_" gradientUnits="userSpaceOnUse" x1="176.3096" y1="284.6924" x2="353.6281" y2="147.8486">
		<stop  offset="0" style="stop-color:#FFFFFF"/>
		<stop  offset="0.0207" style="stop-color:#F2F4F9"/>
		<stop  offset="0.0979" style="stop-color:#C8D1E4"/>
		<stop  offset="0.1815" style="stop-color:#A2B2D1"/>
		<stop  offset="0.2705" style="stop-color:#8297C2"/>
		<stop  offset="0.3666" style="stop-color:#6982B5"/>
		<stop  offset="0.4725" style="stop-color:#5571AB"/>
		<stop  offset="0.5933" style="stop-color:#4766A4"/>
		<stop  offset="0.7418" style="stop-color:#3E5FA0"/>
		<stop  offset="1" style="stop-color:#3C5D9F"/>
	</linearGradient>
	<path fill="url(#SVGID_3_)" d="M280.875,200.773c-4.282-29.271-14.139-38.694-14.139-38.694
		c-1.598,24.979-1.716,24.669-2.202,27.181c-19.64-10.191-31.377-8.66-31.377-8.66s21.819,30.932,23.299,32.732
		c-3.188,10.258-19.989,27.272-19.989,27.272c7.994,1.432,15.707,3.862,33.45-6.031c4.868,7.18,8.959,15.025,15.093,26.451
		c0,0,0.493-33.458,0.291-35.983c3.994-2.788,10.847-10.42,10.847-10.42S283.39,202.555,280.875,200.773z"/>
	<path fill="#FFFFFF" stroke="#2C457B" d="M279.498,203.848c-1.278-9.422-4.08-21.187-8.764-27.776
		c-0.423,8.994-2.135,16.708-2.993,19.698c-13.159-7.121-18.351-8.41-23.646-9.172c7.707,8.998,15.929,21.167,18.933,24.168
		c-2.577,11.992-14.827,24.507-16.97,26.216c10.711,2.569,21.683-5.656,25.104-8.226c5.162,6.568,8.185,13.074,11.215,19.731
		c0.858-10.28,0.906-19.22,0.154-25.575c6.845-4.285,7.482-6.579,9.621-8.719C287.439,209.48,282.075,205.563,279.498,203.848z"/>
	<linearGradient id="SVGID_4_" gradientUnits="userSpaceOnUse" x1="-1.2739" y1="28.5845" x2="51.4064" y2="112.2034">
		<stop  offset="0.0056" style="stop-color:#3D5E9F"/>
		<stop  offset="1" style="stop-color:#FFFFFF"/>
	</linearGradient>
	<path fill="url(#SVGID_4_)" d="M49.69,149.25c3.24,4.177,9.194,11.57,18.874,22.535c-2.498-5.457-10.457-24.133-15.035-37.09
		l6.388-24.262C45.382,90.751,31.729,67.66,34.721,44.571c-17.87,17.146-22.982,51.67,11.849,100.441l-0.009,0.042
		c0,0,0.766,1.103,2.498,3.369c0.212,0.282,0.416,0.562,0.628,0.849L49.69,149.25z"/>
</g>
</svg>
